<svg width="512px" height="177px" viewBox="0 0 512 177" version="1.1" xmlns="http://www.w3.org/2000/svg"><path class="dot" fill="#FFD124" d="M502.21,18.648L502.21,18.648L502.21,18.648c-1.658,0-3.219,0.429-4.583,1.183 c-0.818,0.452-1.565,1.022-2.218,1.686c-1.742,1.772-2.821,4.218-2.821,6.915c0,1.577,0.37,3.05,1.016,4.351 c0.096,0.194,0.199,0.383,0.308,0.569c0.253,0.433,0.531,0.849,0.847,1.234c0.389,0.473,0.823,0.908,1.297,1.297 c1.657,1.362,3.794,2.171,6.154,2.171c5.395,0,9.784-4.317,9.784-9.621C511.994,23.037,507.605,18.648,502.21,18.648z"></path><path class="text" fill="#ffffff" d="M236.488,28.433c0-5.575,4.462-10.11,9.947-10.11c5.574,0,10.11,4.535,10.11,10.11 c0,5.484-4.536,9.947-10.11,9.947C240.858,38.38,236.488,34.011,236.488,28.433z M180.7,123.143 c-2.812,4.046-13.462,13.904-20.505,13.904c-6.971,0-10.81-4.649-10.81-13.09c0-2.258,0.09-5.056,0.254-7.981 c-6.888,8.592-20.67,21.233-30.941,21.233c-15,0-21.714-9.925-21.714-19.761c0-12.673,13.238-23.729,41.662-34.791l12.49-4.816 c-0.832-20.022-6.442-23.952-15.838-23.952c-10.534,0-14.372,7.415-17.456,13.373c-0.774,1.498-1.505,2.91-2.272,4.026 c-1.885,2.721-3.971,3.594-8.588,3.594c-4.886,0-8.043-2.072-8.043-5.277c0-2.342,1.682-5.921,6.403-8.941 c6.46-4.199,20.59-11.308,32.561-11.308c18.724,0,29.036,11.063,29.036,31.152c0,6.222-0.416,14.758-0.782,22.289 c-0.279,5.708-0.519,10.637-0.519,13.349c0,8.39,0.96,12.298,3.021,12.298c1.576,0,5.054-3.811,7.443-8.154 c0.829-1.331,2.42-1.714,3.71-0.91l0.001,0C181.139,120.209,181.52,121.827,180.7,123.143z M150.963,82.343l-11.025,4.784 c-23.592,9.95-28.505,14.496-28.505,25.601c0,8.026,8.261,14.251,15.377,14.251c3.612,0,8.839-3.059,14.381-8.391 c4.539-4.368,8.437-9.579,9.13-12.121l-0.068-0.6c0.245-2.907,0.71-10.59,0.71-22.429V82.343z M81.963,52.004v14.178v5.786v52.174 c0,30.155-25.605,51.983-42.802,51.983c-13.824,0-24.25-5.622-24.25-10.648c0-4.806,4.29-9.021,9.182-9.021 c3.171,0,6.585,1.839,10.542,3.969c4.628,2.489,9.861,5.308,15.323,5.308c5.092,0,17.005,0,17.005-32.313v-3.523 c-7,3.837-14.424,6.175-23.063,6.175C18.043,136.07,0,119.096,0,94.792c0-24.932,20.496-44.46,46.651-44.46 c8.829,0,16.733,2.054,23.307,5.729c0.287-0.422,0.584-0.826,0.833-1.193c3.25-4.798,6.656-5.535,8.567-5.535 C81.869,49.332,81.963,51.343,81.963,52.004z M66.963,70.077c-5-8.856-12.63-15.154-22.387-15.154 c-12.418,0-27.211,6.448-27.211,37.164c0,19.285,11.006,39.231,29.432,39.231c8.834,0,16.167-3.722,20.167-10.653v-6.294V70.077z M488.251,92.061c0,21.277-18.141,44.985-44.17,44.985c-24.666,0-41.892-17.361-41.892-42.219c0-25.499,19.545-45.472,44.497-45.472 C471.159,49.356,488.251,66.917,488.251,92.061z M472.001,94.665c0-19.532-10.425-40.613-27.269-40.613 c-11.846,0-25.967,6.595-25.967,38.009c0,19.724,10.505,40.125,28.083,40.125C462.833,132.186,472.001,118.51,472.001,94.665z M305.998,130.934c-7.812,0-8.035,0-8.035-16.415V2.722c0-0.579-0.332-1.403-1.523-2.042c-0.774-0.416-2.744-1.057-3.737-0.395 c-4.823,2.695-10.894,5.653-19.171,7.146c-0.725,0.09-1.363,0.423-1.779,0.937c-0.384,0.476-0.569,1.077-0.497,1.65 c0.076,0.617,0.423,1.162,0.956,1.495c0.474,0.296,1.056,0.403,1.749,0.317c3.376-0.608,5.844-0.939,6.961-0.003 c1.313,1.098,2.042,4.458,2.042,11.235v91.457c0,16.415-0.722,16.415-6.007,16.415c-1.599,0-2.546,1.142-2.546,2.217 c0,1.075,0.821,2.218,2.42,2.218c2.718,0,6.568-0.106,9.985-0.199l0.137-0.004c2.284-0.063,4.438-0.123,5.463-0.123 c0.996,0,2.658,0.055,4.656,0.122c2.71,0.091,6.083,0.204,8.847,0.204c1.599,0,2.501-1.143,2.501-2.218 C308.419,132.076,307.597,130.934,305.998,130.934z M217.149,130.934c-7.811,0-8.186,0-8.186-16.415V2.722 c0-0.579-0.181-1.403-1.372-2.042c-0.776-0.416-2.672-1.056-3.662-0.394c-4.824,2.695-10.855,5.653-19.135,7.146 c-0.725,0.09-1.344,0.423-1.759,0.937c-0.385,0.476-0.56,1.077-0.487,1.65c0.076,0.617,0.429,1.162,0.96,1.495 c0.472,0.295,1.055,0.403,1.751,0.317c3.379-0.61,5.693-0.939,6.812-0.003c1.313,1.098,1.893,4.458,1.893,11.235v91.457 c0,16.415-0.57,16.415-5.855,16.415c-1.6,0-2.471,1.142-2.471,2.217c0,1.075,0.857,2.218,2.457,2.218 c2.718,0,6.587-0.106,10.004-0.199l0.146-0.004c2.284-0.063,4.442-0.123,5.468-0.123c0.996,0,2.66,0.055,4.659,0.122 c2.71,0.091,6.082,0.204,8.847,0.204c1.599,0,2.427-1.143,2.427-2.218C219.645,132.076,218.748,130.934,217.149,130.934z M395.826,109.179c-6.935,18.098-23.44,27.867-41.138,27.867c-27.547,0-40.085-18.887-40.085-38.618 c0-24.958,21.014-49.073,49.091-49.073c18.365,0,28.43,10.624,28.43,21.923c0,9.275-4.415,12.142-10.065,12.142l-53.152,0.168 c-0.176,1.855-0.353,3.879-0.353,5.902c0,22.935,13.597,36.257,32.139,36.257c14.285,0,22.866-4.966,31.958-18.176 c0.397-0.577,1.202-0.755,1.814-0.39l0.812,0.484C395.806,107.983,396.041,108.618,395.826,109.179z M329.789,79.205 c17.129-0.169,28.077-0.337,37.26-1.181c3.002-0.337,5.651-1.012,6.887-2.192c1.236-1.181,1.942-2.698,1.942-5.396 c0-7.42-5.121-13.828-18.012-13.828C343.916,56.607,333.321,65.377,329.789,79.205z M263.138,130.934 c-7.737,0-8.174-0.978-8.174-14.95V52.029c0-0.58-0.355-1.406-1.552-2.045c-0.617-0.329-2.689-1.092-3.863-0.314 c-5.958,4.124-11.64,7.242-19.883,9.056c-0.604,0.15-1.113,0.452-1.447,0.871c-0.407,0.508-0.558,1.152-0.404,1.768 c0.134,0.534,0.492,1.011,0.989,1.308c0.402,0.242,1.082,0.478,2.003,0.245c3.535-0.776,5.562-1.059,6.623-0.206 c1.219,0.979,1.534,4.009,1.534,9.822v43.451c0,13.972-0.325,14.95-8.215,14.95c-1.599,0-2.348,1.142-2.348,2.217 c0,1.075,0.919,2.218,2.518,2.218c2.716,0,6.876-0.105,10.522-0.199l0.178-0.004c2.443-0.063,4.757-0.123,5.786-0.123 c1.027,0,3.189,0.06,5.474,0.123l0.152,0.004c3.415,0.093,7.286,0.199,10.002,0.199c1.599,0,2.514-1.143,2.514-2.218 C265.546,132.076,264.737,130.934,263.138,130.934z"></path></svg>